<svg width="62"
    height="62"
    viewBox="0 0 62 62"
    fill="none"
    xmlns="http://www.w3.org/2000/svg">
    <path
        fill-rule="evenodd"
        clip-rule="evenodd"
        d="M30.9995 61.8267C48.0246 61.8267 61.8262 48.0251 61.8262 31C61.8262 13.9749 48.0246 0.17334 30.9995 0.17334C13.9744 0.17334 0.172852 13.9749 0.172852 31C0.172852 48.0251 13.9744 61.8267 30.9995 61.8267ZM30.9995 56.6889C45.1871 56.6889 56.6884 45.1876 56.6884 31C56.6884 16.8124 45.1871 5.31112 30.9995 5.31112C16.8119 5.31112 5.31063 16.8124 5.31063 31C5.31063 45.1876 16.8119 56.6889 30.9995 56.6889Z"
        fill="url(#paint0_angular_1791_45258)" />
    <path
        fill-rule="evenodd"
        clip-rule="evenodd"
        d="M58.6965 24.8365C60.1036 24.6549 61.3915 25.6484 61.573 27.0555C61.7418 28.3636 61.8264 29.6811 61.8264 31C61.8264 32.4188 60.6763 33.5689 59.2575 33.5689C57.8388 33.5689 56.6886 32.4188 56.6886 31C56.6886 29.9009 56.6181 28.803 56.4775 27.7129C56.2959 26.3058 57.2894 25.018 58.6965 24.8365Z"
        fill="#6366F1" />
    <defs>
        <radialGradient
            id="paint0_angular_1791_45258"
            cx="0"
            cy="0"
            r="1"
            gradientUnits="userSpaceOnUse"
            gradientTransform="translate(30.9995 31) scale(30.8267)">
            <stop
                stop-color="#6366F1"
                stop-opacity="0" />
            <stop
                offset="1"
                stop-color="#6366F1" />
        </radialGradient>
    </defs>
</svg>
